<svg xmlns="http://www.w3.org/2000/svg" version="1.1" xmlns:xlink="http://www.w3.org/1999/xlink" width="512" height="512" x="0" y="0" viewBox="0 0 512 512" style="enable-background:new 0 0 512 512" xml:space="preserve" class=""><g><path d="M191.8 179.1c-3.4-7-7.4-12.1-11.9-15.3-4.6-3.2-9.9-4.8-16-4.8s-11.5 1.6-16.2 4.8-8.7 8.3-11.9 15.3L68.8 323c-2.5 5.7-3.3 10.9-2.4 15.4s3.2 8.1 7 10.7 8.4 3.9 14 3.9c7 0 12.2-1.6 15.6-4.8s6.7-8.4 9.9-15.6l8.7-20.4H206l8.7 20.4c3 7.2 6.5 12.4 10.3 15.6s9.4 4.8 16.5 4.8c5.4 0 9.9-1.2 13.6-3.8 3.7-2.5 5.9-6.1 6.7-10.7s-.2-9.8-3.1-15.6zm-28.5 33.8h.5l26 61.5h-52.2l25.7-61.5zm282.6 50.5v59.3c0 5.4-1.1 9.9-3.4 13.7s-5.8 6.4-10.6 8.1c-8.4 2.9-17.5 5.1-27.4 6.7-9.8 1.6-19.7 2.4-29.5 2.4-21.6 0-40-4-55.2-12.1-15.1-8-26.6-19.3-34.5-33.8s-11.8-31.4-11.8-50.7c0-15 2.4-28.6 7.1-40.7s11.6-22.4 20.5-31.1c9-8.7 19.9-15.3 32.9-19.9s27.7-6.8 44.1-6.8c9 0 18.1.9 27.4 2.6s18.4 4.9 27.4 9.5c4.6 2.2 7.8 5.2 9.5 9s2.2 7.9 1.6 12.1-2.1 8.1-4.6 11.5c-2.4 3.5-5.7 5.8-9.8 7s-8.8.6-14-1.7c-5.4-2.5-11.2-4.4-17.5-5.8-6.3-1.3-12.9-2-19.9-2-12 0-22 2.2-29.9 6.4-8 4.3-13.9 10.6-17.9 19.1-3.9 8.4-5.9 18.7-5.9 30.9 0 18.2 4.5 32 13.4 41.3 9 9.3 22.2 14 39.7 14 5.4 0 11.2-.5 17.6-1.6 3.3-.6 6.7-1.3 10.1-2.1v-29.9h-18.8c-6.1 0-10.8-1.5-14.1-4.6-3.3-3-5-7.3-5-12.9 0-5.5 1.6-9.8 5-12.8 3.3-3 8-4.4 14.1-4.4h39.7c6.3 0 11 1.7 14.4 5s5.3 8 5.3 14.3z" fill="#f34700" opacity="1" data-original="#000000" class=""></path></g></svg>